HIERARCHY
ROOT Hips
{
	OFFSET 0.000000 0.000000 0.000000 
	CHANNELS 6 Xposition Yposition Zposition Yrotation Zrotation Xrotation 
	JOINT Lumbar
	{
		OFFSET 0.000000 0.000000 0.000000 
		CHANNELS 3 Zrotation Xrotation Yrotation
		JOINT Neck
		{
			OFFSET 0.000000 0.445665 0.000000 
			CHANNELS 3 Zrotation Xrotation Yrotation
			End Site
			{
				OFFSET 0.000000 0.227535 0.000000 
			}
		}
		JOINT RightShoulder
		{
			OFFSET 0.019635 0.377685 0.194865 
			CHANNELS 3 Zrotation Xrotation Yrotation
			JOINT RightElbow
			{
				OFFSET 0.000000 -0.243375 0.000000 
				CHANNELS 2 Zrotation Yrotation
				JOINT RightWrist
				{
					OFFSET 0.000000 -0.264825 0.000000 
					CHANNELS 2 Zrotation Xrotation
					End Site
					{
						OFFSET 0.006600 -0.176220 0.000990 
					}
				}
			}
		}
		JOINT LeftShoulder
		{
			OFFSET 0.019635 0.377685 -0.194865 
			CHANNELS 3 Zrotation Xrotation Yrotation
			JOINT LeftElbow
			{
				OFFSET 0.000000 -0.243375 0.000000 
				CHANNELS 2 Zrotation Yrotation
				JOINT LeftWrist
				{
					OFFSET 0.000000 -0.264825 0.000000 
					CHANNELS 2 Zrotation Xrotation
					End Site
					{
						OFFSET 0.006600 -0.176220 -0.000990 
					}
				}
			}
		}
	}
	JOINT RightHip
	{
		OFFSET 0.052140 -0.069960 0.075570 
		CHANNELS 3 Zrotation Xrotation Yrotation
		JOINT RightKnee
		{
			OFFSET 0.000000 -0.402270 0.000000 
			CHANNELS 1 Zrotation
			JOINT RightAnkle
			{
				OFFSET 0.000000 -0.404085 0.000000 
				CHANNELS 3 Zrotation Xrotation Yrotation
				End Site
				{
					OFFSET 0.204105 -0.089430 0.008415 
				}
			}
		}
	}
	JOINT LeftHip
	{
		OFFSET 0.052140 -0.069960 -0.075570 
		CHANNELS 3 Zrotation Xrotation Yrotation
		JOINT LeftKnee
		{
			OFFSET 0.000000 -0.402270 0.000000 
			CHANNELS 1 Zrotation
			JOINT LeftAnkle
			{
				OFFSET 0.000000 -0.404085 0.000000 
				CHANNELS 3 Zrotation Xrotation Yrotation
				End Site
				{
					OFFSET 0.204105 -0.089430 -0.008415 
				}
			}
		}
	}
}
MOTION
Frames: 16
Frame Time: 0.02
0.0089 -0.03994 -0.06887 185.12595 -25.37782 2.59488 41.81473 1.55298 -13.94786 -26.63997 -5.48238 -0.83075 20.39087 -66.91382 24.03703 106.8657 103.57806 18.4199 0.21691 -41.55249 28.40604 10.96818 78.91355 -94.33416 6.85028 -1.06329 39.42541 -4.28899 -13.379 -41.30182 -6.46107 -4.21349 -2.84814 28.86451 13.25612 -4.87684 -34.90155 -10.24233 4.4154 3.15947
0.0084 -0.0369 -0.0731 185.33559 -25.46568 2.63311 41.69095 1.56912 -13.92773 -26.51408 -5.3195 -0.83075 20.74548 -66.18646 23.16246 107.03019 101.90363 17.72827 -0.00611 -41.54161 27.92613 10.93217 77.86587 -94.48961 7.01431 -1.05172 38.86844 -3.82622 -13.29652 -39.93558 -6.52717 -4.24239 -2.86804 28.97432 13.38954 -5.19935 -34.41027 -10.59007 4.36551 3.15054
0.00822 -0.03412 -0.07714 185.60083 -25.46471 2.66175 41.44888 1.59255 -13.91273 -26.40015 -5.11401 -0.83075 20.66619 -65.3124 21.78717 107.27466 99.30229 16.87546 -0.37829 -41.50994 27.44879 10.87206 76.82904 -94.77875 7.26206 -1.0365 38.23591 -3.34743 -13.1467 -38.57708 -6.60148 -4.27855 -2.89365 29.08399 13.52712 -5.50997 -34.0208 -10.94189 4.30908 3.13839
0.00792 -0.03124 -0.08124 185.83938 -25.51468 2.69429 41.26853 1.61341 -13.89159 -26.28446 -4.92107 -0.83075 20.77669 -64.46813 20.61857 107.47417 97.16846 16.06683 -0.67183 -41.48855 26.96653 10.81753 75.77796 -94.96252 7.44262 -1.02028 37.65453 -2.88072 -13.03435 -37.22344 -6.67178 -4.31058 -2.91613 29.21312 13.66189 -5.81566 -33.59882 -11.28907 4.25664 3.12812
0.0075 -0.02828 -0.08546 186.08639 -25.52181 2.72913 41.05628 1.63091 -13.88638 -26.15475 -4.75486 -0.83075 20.91106 -63.78089 19.53164 107.70997 94.8599 15.39003 -1.00741 -41.45942 26.50023 10.7849 74.76608 -95.33007 7.74489 -1.01501 37.0046 -2.39391 -12.89272 -35.83481 -6.74349 -4.3465 -2.94102 29.26534 13.80139 -6.1676 -33.12209 -11.64929 4.1992 3.11577
0.0074 -0.02554 -0.08939 186.32767 -25.5953 2.75687 40.8807 1.65743 -13.84826 -26.05581 -4.52477 -0.83075 20.89739 -62.72952 18.16015 107.8887 92.68854 14.39916 -1.29332 -41.44322 26.00071 10.70125 73.67482 -95.35215 7.81655 -0.98634 36.47694 -1.94551 -12.79619 -34.52 -6.8141 -4.37577 -2.96211 29.47473 13.93137 -6.41615 -32.78272 -11.98227 4.15104 3.10716
0.00812 -0.02329 -0.09264 186.54413 -25.88751 2.76627 40.84845 1.70456 -13.7303 -26.04744 -4.11437 -0.83075 20.55738 -60.73178 16.10409 107.89707 91.10748 12.5542 -1.39264 -41.46683 25.41588 10.48222 72.3674 -94.34154 7.20074 -0.89209 36.32658 -1.60199 -12.83973 -33.41759 -6.8799 -4.38659 -2.97224 30.13202 14.03752 -6.4231 -32.79227 -12.24543 4.12829 3.109
0.00915 -0.02125 -0.09561 186.75182 -26.24721 2.76904 40.85501 1.76093 -13.57685 -26.06792 -3.64365 -0.83075 20.08848 -58.37021 13.786 107.84453 89.69691 10.40363 -1.43938 -41.50533 24.79666 10.21276 70.97971 -92.98816 6.35606 -0.77489 36.29848 -1.29856 -12.93049 -32.38798 -6.94425 -4.39021 -2.9782 30.94467 14.13288 -6.31997 -32.93681 -12.47949 4.11547 3.11483
0.01004 -0.01912 -0.09868 186.96012 -26.56654 2.77546 40.83463 1.81484 -13.43186 -26.06954 -3.21044 -0.83075 19.69496 -56.15779 11.5993 107.81495 88.21427 8.40643 -1.51932 -41.53776 24.18813 9.96691 69.62385 -91.82078 5.63484 -0.66934 36.19966 -0.97997 -13.00115 -31.31746 -7.00904 -4.39592 -2.98539 31.67613 14.23126 -6.23913 -33.02282 -12.72288 4.09949 3.11937
0.01095 -0.01699 -0.10188 187.18437 -26.92253 2.77876 40.84791 1.86196 -13.31973 -26.09597 -2.73433 -0.83075 19.21548 -54.00117 9.3329 107.80619 86.67392 6.33588 -1.56602 -41.56487 23.59892 9.71775 68.28392 -90.52675 4.83163 -0.55813 36.15964 -0.64779 -13.06655 -30.27759 -7.07495 -4.40658 -2.99541 32.45103 14.33916 -6.27055 -33.1014 -12.98391 4.07786 3.12179
0.01188 -0.01489 -0.10473 187.3729 -27.22084 2.78723 40.8037 1.92492 -13.13027 -26.07728 -2.33226 -0.83075 18.88981 -51.65316 7.1896 107.74094 85.30991 4.35613 -1.66644 -41.60885 22.96331 9.46326 66.8967 -89.41798 4.14733 -0.45377 36.03041 -0.35381 -13.15145 -29.1944 -7.13819 -4.4055 -2.9987 33.17401 14.42281 -6.0477 -33.2251 -13.19992 4.07006 3.12935
0.01283 -0.01277 -0.1067 187.46194 -27.33059 2.81025 40.57581 2.03295 -12.73958 -25.92808 -2.16324 -0.83075 19.02505 -48.78724 5.34448 107.51348 84.36348 2.629 -1.93662 -41.67915 22.19062 9.21138 65.35558 -88.86414 3.8159 -0.36998 35.59747 -0.15426 -13.31041 -27.94606 -7.19331 -4.37048 -2.98254 33.70073 14.45809 -5.10076 -33.44823 -13.30982 4.10136 3.15262
0.01379 -0.01068 -0.10831 187.51564 -27.38257 2.83889 40.2921 2.15591 -12.27174 -25.7323 -2.06862 -0.83075 19.32065 -45.75729 3.6552 107.23457 83.59837 1.0182 -2.26021 -41.76916 21.37582 8.95511 63.77804 -88.51502 3.61719 -0.29458 35.076 0.00779 -13.4825 -26.65726 -7.24585 -4.32442 -2.96005 34.17231 14.46669 -3.91005 -33.70961 -13.37334 4.1456 3.18045
0.01473 -0.0086 -0.11007 187.58714 -27.47006 2.866 40.04477 2.26961 -11.83671 -25.55692 -1.9309 -0.83075 19.54229 -42.8538 1.96577 106.99294 82.77301 -0.5973 -2.55309 -41.86117 20.59146 8.69768 62.24476 -88.09862 3.37832 -0.21803 34.61353 0.18628 -13.62721 -25.40449 -7.30035 -4.2856 -2.94171 34.67928 14.47658 -2.86419 -33.94843 -13.45079 4.18183 3.20461
0.01573 -0.00641 -0.11191 187.65088 -27.52162 2.88896 39.75258 2.39398 -11.40945 -25.38542 -1.82961 -0.83075 19.76464 -39.7157 -0.03398 106.69149 81.85956 -2.42695 -2.87183 -41.90735 19.75749 8.45167 60.58996 -87.56341 3.0477 -0.12963 34.07625 0.36647 -13.86102 -24.0777 -7.35185 -4.23738 -2.918 35.14932 14.53036 -1.67428 -34.21593 -13.55732 4.2276 3.23576
0.0166 -0.00445 -0.11348 187.72266 -27.63237 2.92149 39.53963 2.49968 -10.94878 -25.19491 -1.6717 -0.83075 20.02419 -37.03538 -1.34377 106.50205 81.17045 -3.77888 -3.14955 -42.05354 19.01815 8.18162 59.18283 -87.32647 2.94106 -0.06795 33.67191 0.53406 -13.9154 -22.89715 -7.40854 -4.20593 -2.90385 35.67957 14.48839 -0.72341 -34.42844 -13.59273 4.25618 3.25326
